HIERARCHY
ROOT hip
{
	OFFSET 0.000000 0.000000 0.000000 
	CHANNELS 6 Xposition Yposition Zposition Xrotation Zrotation Yrotation
	JOINT abdomen
	{
		OFFSET 0.000000 3.402643 0.000000 
		CHANNELS 3 Xrotation Zrotation Yrotation
		JOINT chest
		{
			OFFSET 0.000000 8.438565 -0.680529 
			CHANNELS 3 Xrotation Zrotation Yrotation
			JOINT neck
			{
				OFFSET 0.000000 10.207942 -0.272212 
				CHANNELS 3 Xrotation Zrotation Yrotation
				JOINT head
				{
					OFFSET 0.000000 3.130431 0.000000 
					CHANNELS 3 Xrotation Zrotation Yrotation
					End Site
					{
						OFFSET 0.000000 3.130435 0.000000 
					}
				}
			}
			JOINT lCollar
			{
				OFFSET 3.470700 6.669187 -0.816635 
				CHANNELS 3 Yrotation Zrotation Xrotation
				JOINT lShldr
				{
					OFFSET 3.198488 0.000000 0.000000 
					CHANNELS 3 Zrotation Yrotation Xrotation
					JOINT lForeArm
					{
						OFFSET 10.139888 0.000000 0.000000 
						CHANNELS 3 Yrotation Zrotation Xrotation
						JOINT lHand
						{
							OFFSET 8.370511 0.000000 0.000000 
							CHANNELS 3 Zrotation Yrotation Xrotation
							End Site
							{
								OFFSET 4.083176 0.000000 0.000000 
							}
						}
					}
				}
			}
			JOINT rCollar
			{
				OFFSET -3.470700 6.669187 -0.816635 
				CHANNELS 3 Yrotation Zrotation Xrotation
				JOINT rShldr
				{
					OFFSET -3.198488 0.000000 0.000000 
					CHANNELS 3 Zrotation Yrotation Xrotation
					JOINT rForeArm
					{
						OFFSET -10.139888 0.000000 0.000000 
						CHANNELS 3 Yrotation Zrotation Xrotation
						JOINT rHand
						{
							OFFSET -8.370511 0.000000 0.000000 
							CHANNELS 3 Zrotation Yrotation Xrotation
							End Site
							{
								OFFSET -4.083176 0.000000 0.000000 
							}
						}
					}
				}
			}
		}
	}
	JOINT lThigh
	{
		OFFSET 5.308129 -1.633274 1.361059 
		CHANNELS 3 Xrotation Zrotation Yrotation
		JOINT lShin
		{
			OFFSET -2.041588 -20.007561 0.000000 
			CHANNELS 3 Xrotation Zrotation Yrotation
			JOINT lFoot
			{
				OFFSET 0.000000 -19.190928 -1.224953 
				CHANNELS 3 Xrotation Yrotation Zrotation
				End Site
				{
					OFFSET 0.000000 -2.449906 4.627600 
				}
			}
		}
	}
	JOINT rThigh
	{
		OFFSET -5.308129 -1.633274 1.361059 
		CHANNELS 3 Xrotation Zrotation Yrotation
		JOINT rShin
		{
			OFFSET 2.041588 -20.007561 0.000000 
			CHANNELS 3 Xrotation Zrotation Yrotation
			JOINT rFoot
			{
				OFFSET 0.000000 -19.190928 -1.224953 
				CHANNELS 3 Xrotation Yrotation Zrotation
				End Site
				{
					OFFSET 0.000000 -2.449906 4.627600 
				}
			}
		}
	}
}
MOTION
Frames: 12
Frame Time: 0.050000
0.000000 53.498543 0.305648 0.000000 0.000000 0.000000 -1.978096 0.986713 0.233576 -0.156508 2.088524 -0.687626 0.000000 0.000000 0.000000 0.000000 0.000000 0.000000 2.021920 -5.690310 -0.063351 -70.100700 9.978770 15.991600 -22.515600 -9.303740 0.147736 5.969490 -0.173112 0.175734 -3.296548 6.759052 -1.027047 70.102951 25.692787 8.326954 26.664949 7.561176 33.848003 -7.887014 3.536171 9.194239 -7.548662 3.574100 0.382933 15.432186 -2.948231 -1.204335 -8.233616 0.977307 -0.730449 -7.531943 -4.331991 0.100592 15.390099 2.929583 0.497791 -8.292366 -1.615936 1.103582 
0.000000 53.498543 0.305648 0.000000 0.000000 0.000000 -1.421244 0.708941 0.167831 -0.112499 1.500608 -0.494129 0.000000 0.000000 0.000000 0.000000 0.000000 0.000000 2.021920 -5.690310 -0.063351 -70.100700 9.978770 15.991601 -22.515600 -9.303740 0.147736 5.969491 -0.173112 0.175734 -2.937742 6.457954 -0.755861 69.536522 27.707176 7.496735 38.309826 7.032670 22.183071 -8.741292 13.984805 26.791773 -7.547703 3.602942 0.363159 15.467645 -2.978499 -1.170886 -8.264176 0.968247 -0.740629 -7.531943 -4.331991 0.100592 15.416048 2.948586 0.511595 -8.319427 -1.630338 1.092595 
0.000000 53.498543 0.305648 0.000000 0.000000 0.000000 -0.852367 0.425171 0.100667 -0.067540 0.899996 -0.296454 0.000000 0.000000 0.000000 0.000000 0.000000 0.000000 2.021920 -5.690310 -0.063351 -70.100708 9.978770 15.991603 -22.515602 -9.303741 0.147736 5.969491 -0.173112 0.175734 -2.571188 6.150354 -0.478819 68.808182 30.107977 6.637637 50.378567 6.285623 10.173217 -9.680109 24.673639 45.084839 -7.547479 3.632132 0.333667 15.494542 -2.997709 -1.155520 -8.299793 0.999800 -0.757685 -7.531943 -4.331991 0.100592 15.440257 2.976789 0.526466 -8.350383 -1.624656 1.072807 
0.000000 53.498543 0.305648 0.000000 0.000000 0.000000 -0.355607 0.177374 0.042016 -0.028281 0.375524 -0.123838 0.000000 0.000000 0.000000 0.000000 0.000000 0.000000 2.021920 -5.690310 -0.063351 -70.100716 9.978772 15.991605 -22.515604 -9.303741 0.147736 5.969492 -0.173112 0.175734 -2.251102 5.881748 -0.236897 67.451294 33.855915 5.834702 61.747654 4.635727 -0.762185 -10.818209 34.077618 62.578487 -7.530121 3.647731 0.322651 15.520135 -3.023767 -1.140955 -8.340077 0.991878 -0.757762 -7.531943 -4.331993 0.100592 15.464052 3.007015 0.541064 -8.379061 -1.630709 1.062185 
0.000000 53.498543 0.305648 0.000000 0.000000 0.000000 -0.015104 0.007522 0.001815 -0.001371 0.016026 -0.005518 0.000000 0.000000 0.000000 0.000000 0.000000 0.000000 2.021920 -5.690310 -0.063351 -70.100700 9.978770 15.991600 -22.515600 -9.303740 0.147736 5.969490 -0.173112 0.175734 -2.031700 5.697630 -0.071073 64.999229 39.911697 5.172974 71.293541 1.398677 -9.203750 -12.270335 40.671669 77.777733 -7.542651 3.668580 0.313466 15.538539 -3.033386 -1.133604 -8.348224 1.006098 -0.776325 -7.531943 -4.331991 0.100592 15.482502 3.016379 0.533681 -8.381733 -1.616833 1.063228 
0.000000 53.498543 0.305648 0.000000 0.000000 0.000000 0.114724 -0.057239 -0.013514 0.008890 -0.121044 0.039595 0.000000 0.000000 0.000000 0.000000 0.000000 0.000000 2.021920 -5.690310 -0.063351 -70.100685 9.978768 15.991596 -22.515598 -9.303740 0.147736 5.969489 -0.173112 0.175734 -1.948046 5.627428 -0.007847 61.245697 48.677929 4.714196 78.179665 -3.735958 -14.174183 -14.084620 43.429718 89.514503 -7.539611 3.676865 0.303333 15.547048 -3.044474 -1.116056 -8.359561 0.993451 -0.777007 -7.531943 -4.331992 0.100592 15.480381 3.025761 0.544498 -8.380223 -1.624695 1.052862 
0.000000 53.498543 0.305648 0.000000 0.000000 0.000000 0.098360 -0.049076 -0.011582 0.007596 -0.103768 0.033909 0.000000 0.000000 0.000000 0.000000 0.000000 0.000000 2.021920 -5.690310 -0.063351 -70.100693 9.978770 15.991598 -22.515600 -9.303741 0.147736 5.969490 -0.173112 0.175734 -1.958591 5.636275 -0.015816 57.025715 58.324669 4.426901 82.717224 -9.583128 -16.464550 -16.042723 43.321552 97.928200 -7.539611 3.676864 0.303333 15.556985 -3.044519 -1.116701 -8.370585 0.983306 -0.767911 -7.531943 -4.331991 0.100592 15.480381 3.025761 0.544498 -8.380224 -1.624692 1.062628 
0.000000 53.498543 0.305648 0.000000 0.000000 0.000000 0.030015 -0.014984 -0.003512 0.002195 -0.031609 0.010159 0.000000 0.000000 0.000000 0.000000 0.000000 0.000000 2.021920 -5.690310 -0.063351 -70.100700 9.978770 15.991600 -22.515600 -9.303740 0.147736 5.969490 -0.173112 0.175734 -2.002630 5.673230 -0.049100 53.434601 66.463799 4.256317 85.504303 -14.583900 -17.308001 -17.859673 41.815907 103.485001 -7.539611 3.676864 0.303333 15.548843 -3.033247 -1.124491 -8.359409 0.994733 -0.776912 -7.531943 -4.331991 0.100592 15.480705 3.025824 0.534769 -8.382002 -1.615427 1.063334 
0.000000 53.498543 0.305648 0.000000 0.000000 0.000000 -0.013873 0.006908 0.001669 -0.001273 0.014726 -0.005091 0.000000 0.000000 0.000000 0.000000 0.000000 0.000000 2.021920 -5.690310 -0.063351 -70.100708 9.978770 15.991602 -22.515602 -9.303740 0.147736 5.969491 -0.173112 0.175734 -2.030909 5.696961 -0.070473 51.302273 71.292389 4.153940 87.093971 -17.554770 -17.741680 -19.314339 40.140396 106.687225 -7.539611 3.676864 0.303333 15.538539 -3.033385 -1.133604 -8.348383 1.004758 -0.776424 -7.531943 -4.331991 0.100592 15.470766 3.025773 0.534124 -8.371967 -1.615888 1.063435 
0.000000 53.498543 0.305648 0.000000 0.000000 0.000000 -0.029569 0.014738 0.003522 -0.002514 0.031298 -0.010545 0.000000 0.000000 0.000000 0.000000 0.000000 0.000000 2.021920 -5.690310 -0.063351 -70.100708 9.978769 15.991602 -22.515602 -9.303740 0.147736 5.969490 -0.173112 0.175734 -2.041022 5.705449 -0.078117 50.328461 73.503120 4.093742 87.905746 -18.909531 -18.028046 -20.462507 38.547295 108.277771 -7.539611 3.676865 0.303333 15.538539 -3.033385 -1.133604 -8.348383 1.004757 -0.776424 -7.531943 -4.331992 0.100592 15.470766 3.025775 0.534124 -8.371966 -1.615890 1.053669 
0.000000 53.498543 0.305648 0.000000 0.000000 0.000000 -0.029285 0.014596 0.003489 -0.002492 0.030998 -0.010446 0.000000 0.000000 0.000000 0.000000 0.000000 0.000000 2.021920 -5.690310 -0.063351 -70.100708 9.978769 15.991602 -22.515602 -9.303740 0.147736 5.969490 -0.173112 0.175734 -2.040838 5.705296 -0.077979 50.022289 74.204887 4.058675 88.263985 -19.333080 -18.224104 -21.404394 37.052437 108.931679 -7.539611 3.676865 0.303333 15.538539 -3.033385 -1.133604 -8.348384 1.004755 -0.786190 -7.531943 -4.331992 0.100592 15.470766 3.025775 0.534124 -8.371966 -1.615891 1.053669 
0.000000 53.498543 0.305648 0.000000 0.000000 0.000000 -0.022296 0.011110 0.002664 -0.001939 0.023619 -0.008018 0.000000 0.000000 0.000000 0.000000 0.000000 0.000000 2.021920 -5.690310 -0.063351 -70.100700 9.978769 15.991600 -22.515600 -9.303740 0.147736 5.969490 -0.173112 0.175734 -2.036335 5.701518 -0.074575 50.016075 74.228096 4.036366 88.409096 -19.338474 -18.369957 -22.200827 35.692028 109.150803 -7.543455 3.668971 0.303756 15.538539 -3.033387 -1.133604 -8.347088 1.015544 -0.775626 -7.531943 -4.331993 0.100592 15.482502 3.016379 0.533681 -8.381733 -1.616833 1.063228 
